<?xml version="1.0" encoding="UTF-8" standalone="no"?>
<svg
   xmlns:dc="http://purl.org/dc/elements/1.1/"
   xmlns:cc="http://creativecommons.org/ns#"
   xmlns:rdf="http://www.w3.org/1999/02/22-rdf-syntax-ns#"
   xmlns:svg="http://www.w3.org/2000/svg"
   xmlns="http://www.w3.org/2000/svg"
   xmlns:xlink="http://www.w3.org/1999/xlink"
   xmlns:sodipodi="http://sodipodi.sourceforge.net/DTD/sodipodi-0.dtd"
   xmlns:inkscape="http://www.inkscape.org/namespaces/inkscape"
   height="210mm"
   width="297mm"
   version="1.1"
   viewBox="0 0 1052.378 744.09448"
   id="svg2"
   inkscape:version="0.91 r13725"
   sodipodi:docname="logo_correios_mono.svg"
   inkscape:export-filename="/Users/osantana/Work/correios/correios/documentation/logo_correios.png"
   inkscape:export-xdpi="81.120003"
   inkscape:export-ydpi="81.120003">
  <defs
     id="defs76">
    <defs
       id="defs20">
      <path
         d="m 42.947,48.088 c -2.585,0 -4.872,1.226 -6.322,3.13 L 22.747,69.244 c -0.364,0.467 -0.588,1.041 -0.588,1.676 0,0.626 0.199,1.191 0.563,1.665 l 13.886,18.012 0.092,0.126 c 1.427,1.811 3.618,2.987 6.096,3.037 l 3.9,0 c -2.107,0 -3.798,-1.7 -3.798,-3.787 0,-0.888 0.303,-1.71 0.82,-2.354 L 56.579,70.92 74.202,48.089 l -31.255,0 z"
         id="X3"
         inkscape:connector-curvature="0" />
    </defs>
    <clipPath
       id="X10">
      <use
         id="use24"
         x="0"
         y="0"
         width="355.005"
         height="118.983"
         xlink:href="#X3" />
    </clipPath>
  </defs>
  <sodipodi:namedview
     pagecolor="#ffffff"
     bordercolor="#666666"
     borderopacity="1"
     objecttolerance="10"
     gridtolerance="10"
     guidetolerance="10"
     inkscape:pageopacity="0"
     inkscape:pageshadow="2"
     inkscape:window-width="1219"
     inkscape:window-height="755"
     id="namedview74"
     showgrid="false"
     units="mm"
     inkscape:zoom="1.001992"
     inkscape:cx="453.69444"
     inkscape:cy="243.05081"
     inkscape:window-x="61"
     inkscape:window-y="1"
     inkscape:window-maximized="1"
     inkscape:current-layer="svg2" />
  <metadata
     id="metadata4">
    <rdf:RDF>
      <cc:Work
         rdf:about="">
        <dc:format>image/svg+xml</dc:format>
        <dc:type
           rdf:resource="http://purl.org/dc/dcmitype/StillImage" />
        <dc:title></dc:title>
      </cc:Work>
    </rdf:RDF>
  </metadata>
  <g
     id="g5412"
     transform="translate(-7.1661524,-117.08745)">
    <g
       style="fill:#000000"
       transform="matrix(1.0726723,0,0,1.0726723,355.91832,452.94521)"
       id="g4588">
      <path
         style="fill:#000000"
         inkscape:connector-curvature="0"
         id="path4590"
         d="m 326.31,47.226 c -1.297,-0.575 -2.938,-0.965 -4.729,-1.402 -2.646,-0.66 -5.099,-0.806 -6.013,-2.227 -0.851,-1.319 -0.381,-2.866 0.752,-3.652 2.603,-1.783 6.138,-1.072 8.094,-0.167 0.328,0.144 1.781,0.979 1.781,0.979 0.194,0.125 0.437,0.203 0.696,0.203 0.466,0 0.853,-0.221 1.099,-0.559 0.019,-0.042 3.705,-4.828 3.705,-4.828 l -0.621,-0.492 c -0.358,-0.262 -0.868,-0.625 -1.41,-0.938 -1.108,-0.625 -4.473,-2.563 -9.362,-2.563 l -0.43,0 c -10.722,0.255 -12.203,7.831 -12.203,10.502 0,4.062 2.088,6.978 5.235,8.787 2.51,1.455 7.272,2.238 9.701,2.976 1.26,0.379 2.187,1.253 2.534,2.106 0.162,0.371 0.248,0.77 0.261,1.191 0.045,1.387 -0.707,3.002 -2.789,3.654 -2.31,0.699 -5.951,0.406 -9.25,-2.184 -0.095,-0.076 -0.465,-0.363 -0.59,-0.412 -0.162,-0.062 -0.316,-0.084 -0.505,-0.084 -0.471,0 -0.84,0.246 -1.103,0.606 -0.053,0.067 -3.67,4.721 -3.67,4.721 0,0 1.275,1.054 1.697,1.376 2.08,1.565 5.81,3.68 10.709,3.68 l 0.187,0 c 10.303,-0.035 12.756,-7.349 12.756,-11.383 0.001,-4.097 -2.508,-8.082 -6.532,-9.89" />
      <path
         style="fill:#000000"
         inkscape:connector-curvature="0"
         id="path4592"
         d="m 211.17,32.159 c -1.769,0.025 -3.246,0.245 -4.736,0.684 -2.373,0.743 -4.187,2.045 -5.569,3.863 -2.283,3.028 -2.259,6.621 -2.259,6.621 l 0,25.099 6.712,0 c 0.424,0 0.78,-0.354 0.78,-0.779 l 0,-23.863 c 0,-0.48 0.072,-2.113 1,-2.969 0.74,-0.667 1.737,-0.989 2.715,-1.133 1.087,-0.16 2.097,-0.084 2.601,-0.017 0,0 0.103,0.017 0.17,0.017 0.488,0 0.91,-0.272 1.149,-0.66 l 3.433,-5.91 c -1.912,-0.666 -3.822,-0.98 -5.996,-0.953" />
      <path
         style="fill:#000000"
         inkscape:connector-curvature="0"
         id="path4594"
         d="m 191.32,32.159 c -1.771,0.025 -3.267,0.245 -4.73,0.684 -2.393,0.743 -4.192,2.045 -5.584,3.863 -2.29,3.028 -2.247,6.621 -2.247,6.621 l 0,25.099 6.706,0 c 0.416,0 0.773,-0.354 0.773,-0.779 l 0,-23.863 c 0,-0.48 0.061,-2.113 1.004,-2.969 0.735,-0.667 1.741,-0.989 2.721,-1.133 1.091,-0.16 2.08,-0.084 2.587,-0.017 0,0 0.12,0.017 0.17,0.017 0.493,0 0.922,-0.272 1.159,-0.66 l 3.433,-5.91 c -1.921,-0.666 -3.831,-0.98 -5.992,-0.953" />
      <path
         style="fill:#000000"
         inkscape:connector-curvature="0"
         id="path4596"
         d="m 132.26,59.131 c -0.254,-0.329 -0.65,-0.54 -1.109,-0.54 -0.262,0 -0.506,0.066 -0.7,0.193 l -0.035,0.009 c -2.281,1.378 -4.963,2.157 -7.83,2.157 -8.414,0 -15.262,-6.851 -15.262,-15.271 0,-8.414 6.848,-15.272 15.262,-15.272 2.867,0 5.539,0.796 7.822,2.147 0.213,0.153 0.475,0.22 0.743,0.22 0.441,0 0.847,-0.22 1.101,-0.523 l 3.811,-4.964 c -3.778,-2.782 -8.432,-4.415 -13.477,-4.415 -12.572,0 -22.805,10.233 -22.805,22.807 0,12.582 10.233,22.822 22.805,22.822 5.045,0 9.699,-1.641 13.496,-4.414 l -3.822,-4.956 z" />
      <path
         style="fill:#000000"
         inkscape:connector-curvature="0"
         id="path4598"
         d="m 234.52,31.634 c -10.144,0 -18.408,8.251 -18.408,18.406 0,10.056 8.269,18.306 18.426,18.419 l 0.541,0 c 4.017,0 7.214,-0.542 11.462,-3.3 l 0.688,-0.445 c 0,0 -3.775,-4.891 -3.813,-4.95 -0.251,-0.328 -0.64,-0.522 -1.08,-0.522 -0.252,0 -0.483,0.06 -0.677,0.176 -0.951,0.501 -3.91,1.828 -7.139,1.828 -4.854,0.01 -8.99,-3.112 -10.546,-7.439 l 25.207,0 2.91,-0.02 c 0.437,0 0.791,-0.344 0.791,-0.768 l 0.041,-2.158 c 0.01,-0.271 0.03,-0.547 0.03,-0.82 0.001,-10.156 -8.267,-18.407 -18.433,-18.407 m 0,7.211 c 4.954,0 9.143,3.215 10.629,7.672 l -21.24,0 c 1.477,-4.457 5.682,-7.672 10.611,-7.672" />
      <path
         style="fill:#000000"
         inkscape:connector-curvature="0"
         id="path4600"
         d="m 258.02,68.501 c -0.429,0 -0.779,-0.338 -0.783,-0.754 l 0,-34.152 c 0.004,-0.406 0.336,-0.752 0.748,-0.768 l 5.953,0 c 0.432,0 0.786,0.344 0.786,0.778 l 0,34.125 c 0,0.425 -0.354,0.771 -0.786,0.771 l -5.918,0 z" />
      <path
         style="fill:#000000"
         inkscape:connector-curvature="0"
         id="path4602"
         d="m 155.92,68.501 c -10.277,0 -18.639,-8.363 -18.639,-18.648 0,-10.272 8.362,-18.626 18.639,-18.626 10.286,0 18.641,8.354 18.641,18.626 0,10.285 -8.355,18.648 -18.641,18.648 m 0,-29.757 c -6.121,0 -11.111,4.989 -11.111,11.108 0,6.141 4.99,11.115 11.111,11.115 6.139,0 11.124,-4.975 11.124,-11.115 0,-6.118 -4.985,-11.108 -11.124,-11.108" />
      <path
         style="fill:#000000"
         inkscape:connector-curvature="0"
         id="path4604"
         d="m 286.9,68.45 c -10.171,0 -18.439,-8.279 -18.439,-18.442 0,-10.175 8.269,-18.442 18.439,-18.442 10.17,0 18.446,8.268 18.446,18.442 0,10.163 -8.276,18.442 -18.446,18.442 m 0,-29.433 c -6.07,0 -11,4.928 -11,10.991 0,6.062 4.93,11.001 11,11.001 6.063,0 10.995,-4.939 10.995,-11.001 0,-6.063 -4.931,-10.991 -10.995,-10.991" />
    </g>
    <g
       style="fill:#000000"
       transform="matrix(1.0928568,0,0,1.0928568,-39.839682,82.606643)"
       id="g5390">
      <g
         style="fill:#000000"
         id="g5380">
        <path
           sodipodi:nodetypes="cccccccccc"
           inkscape:connector-curvature="0"
           id="path5340"
           d="m 399.82979,383.48143 30.83078,0 c 3.38909,-0.009 5.51947,-1.47416 6.77031,-3.0172 l 14.04818,-18.3306 c 0.68312,-1.14814 0.53219,-2.12948 0.0441,-3.04338 L 437.2325,340.65354 c -1.17339,-1.46066 -3.81389,-2.85864 -5.39135,-2.8614 l -4.17986,0 c 4.17986,0 5.64741,3.68808 3.70498,6.34585 z"
           style="fill:#000000;fill-opacity:1;fill-rule:evenodd;stroke:none;stroke-width:0.10000151;stroke-linecap:butt;stroke-linejoin:miter;stroke-miterlimit:4;stroke-dasharray:none;stroke-opacity:1" />
        <path
           sodipodi:nodetypes="ccccc"
           inkscape:connector-curvature="0"
           id="path5376"
           d="m 400.44728,337.78658 17.37816,22.40635 12.57048,-16.23137 c 1.87128,-2.48608 0.13344,-6.16888 -2.86696,-6.17498 z"
           style="fill:#000000;fill-opacity:1;fill-rule:evenodd;stroke:none;stroke-width:0.10000151;stroke-linecap:butt;stroke-linejoin:miter;stroke-miterlimit:4;stroke-dasharray:none;stroke-opacity:1" />
      </g>
      <g
         style="fill:#000000"
         id="g5384"
         transform="matrix(-1,0,0,-1,812.09943,743.97312)">
        <path
           style="fill:#000000;fill-opacity:1;fill-rule:evenodd;stroke:none;stroke-width:0.10000151;stroke-linecap:butt;stroke-linejoin:miter;stroke-miterlimit:4;stroke-dasharray:none;stroke-opacity:1"
           d="m 399.82979,383.48143 30.83078,0 c 3.38909,-0.009 5.51947,-1.47416 6.77031,-3.0172 l 14.04818,-18.3306 c 0.68312,-1.14814 0.53219,-2.12948 0.0441,-3.04338 L 437.2325,340.65354 c -1.17339,-1.46066 -3.81389,-2.85864 -5.39135,-2.8614 l -4.17986,0 c 4.17986,0 5.64741,3.68808 3.70498,6.34585 z"
           id="path5386"
           inkscape:connector-curvature="0"
           sodipodi:nodetypes="cccccccccc" />
        <path
           style="fill:#000000;fill-opacity:1;fill-rule:evenodd;stroke:none;stroke-width:0.10000151;stroke-linecap:butt;stroke-linejoin:miter;stroke-miterlimit:4;stroke-dasharray:none;stroke-opacity:1"
           d="m 400.44728,337.78658 17.37816,22.40635 12.57048,-16.23137 c 1.87128,-2.48608 0.13344,-6.16888 -2.86696,-6.17498 z"
           id="path5388"
           inkscape:connector-curvature="0"
           sodipodi:nodetypes="ccccc" />
      </g>
    </g>
  </g>
</svg>
