<?xml version="1.0" encoding="UTF-8" standalone="no"?>
<!-- Created with Inkscape (http://www.inkscape.org/) -->

<svg
   xmlns:dc="http://purl.org/dc/elements/1.1/"
   xmlns:cc="http://creativecommons.org/ns#"
   xmlns:rdf="http://www.w3.org/1999/02/22-rdf-syntax-ns#"
   xmlns:svg="http://www.w3.org/2000/svg"
   xmlns="http://www.w3.org/2000/svg"
   xmlns:sodipodi="http://sodipodi.sourceforge.net/DTD/sodipodi-0.dtd"
   xmlns:inkscape="http://www.inkscape.org/namespaces/inkscape"
   id="svg3495"
   version="1.1"
   inkscape:version="0.91 r13725"
   xml:space="preserve"
   width="884.48126"
   height="725.71875"
   viewBox="0 0 884.48126 725.71875"
   sodipodi:docname="logo_shipping_categories.svg"><metadata
     id="metadata3501"><rdf:RDF><cc:Work
         rdf:about=""><dc:format>image/svg+xml</dc:format><dc:type
           rdf:resource="http://purl.org/dc/dcmitype/StillImage" /><dc:title></dc:title></cc:Work></rdf:RDF></metadata><defs
     id="defs3499"><clipPath
       clipPathUnits="userSpaceOnUse"
       id="clipPath3511"><path
         d="m 0,580.575 707.585,0 L 707.585,0 0,0 0,580.575 Z"
         id="path3513"
         inkscape:connector-curvature="0" /></clipPath></defs><sodipodi:namedview
     pagecolor="#ffffff"
     bordercolor="#666666"
     borderopacity="1"
     objecttolerance="10"
     gridtolerance="10"
     guidetolerance="10"
     inkscape:pageopacity="0"
     inkscape:pageshadow="2"
     inkscape:window-width="1216"
     inkscape:window-height="755"
     id="namedview3497"
     showgrid="false"
     inkscape:zoom="0.76200319"
     inkscape:cx="364.81314"
     inkscape:cy="447.3245"
     inkscape:window-x="64"
     inkscape:window-y="1"
     inkscape:window-maximized="1"
     inkscape:current-layer="g3503" /><g
     id="g3503"
     inkscape:groupmode="layer"
     inkscape:label="SImbolosLinhasRemessasPostais"
     transform="matrix(1.25,0,0,-1.25,0,725.71875)"><g
       id="g4144"
       transform="translate(101.39199,3.1280378)"><g
         id="g4226"
         transform="translate(-46.194033,94.487794)"><g
           id="g3689"
           transform="translate(266.6621,378.8887)"><path
             d="m 0,0 -60.58,-60.579 -45.432,0 60.574,60.579 -60.574,60.578 45.432,0 L 0,0 Z"
             style="fill:#df3023;fill-opacity:1;fill-rule:nonzero;stroke:none"
             id="path3691"
             inkscape:connector-curvature="0" /></g><g
           id="g3693"
           transform="translate(175.7939,378.8887)"><path
             d="m 0,0 -30.288,-30.291 0,60.581 L 0,0 Z"
             style="fill:#df3023;fill-opacity:1;fill-rule:nonzero;stroke:none"
             id="path3695"
             inkscape:connector-curvature="0" /></g><g
           id="g3705"
           transform="translate(148.5591,287.106)"><path
             d="M 0,0 4.649,0 C 6.115,0 7.186,0.331 7.863,0.994 8.542,1.656 8.88,2.656 8.88,3.991 8.88,4.858 8.713,5.601 8.379,6.219 8.046,6.836 7.642,7.26 7.169,7.489 6.695,7.719 5.841,7.833 4.604,7.833 L 0,7.833 0,0 Z m -2.377,-11.497 0,21.916 6.773,0 c 1.594,0 2.77,-0.139 3.527,-0.418 C 8.96,9.622 9.788,8.919 10.405,7.893 11.023,6.866 11.332,5.605 11.332,4.11 11.332,2.137 10.829,0.528 9.822,-0.718 8.816,-1.963 7.077,-2.587 4.604,-2.587 l -4.604,0 0,-8.91 -2.377,0 z"
             style="fill:#df3023;fill-opacity:1;fill-rule:nonzero;stroke:none"
             id="path3707"
             inkscape:connector-curvature="0" /></g><g
           id="g3709"
           transform="translate(165.3027,287.8525)"><path
             d="m 0,0 5.113,0 c 1.116,0 1.963,0.135 2.541,0.404 0.578,0.269 1.037,0.693 1.375,1.271 0.34,0.577 0.509,1.251 0.509,2.018 0,1.106 -0.324,1.976 -0.972,2.609 C 7.918,6.935 6.957,7.251 5.681,7.251 L 0,7.251 0,0 Z m -2.377,-12.244 0,21.917 7.969,0 C 7.256,9.673 8.484,9.468 9.276,9.06 10.068,8.651 10.719,7.971 11.228,7.021 11.735,6.07 11.99,4.966 11.99,3.713 11.99,2.059 11.559,0.718 10.697,-0.306 9.834,-1.333 8.581,-1.985 6.937,-2.264 7.604,-2.666 8.113,-3.071 8.461,-3.483 9.169,-4.32 9.792,-5.251 10.33,-6.278 l 3.14,-5.966 -2.99,0 -2.397,4.557 c -0.928,1.782 -1.63,2.983 -2.102,3.604 -0.473,0.618 -0.93,1.036 -1.374,1.25 -0.443,0.215 -1.063,0.322 -1.859,0.322 l -2.748,0 0,-9.733 -2.377,0 z"
             style="fill:#df3023;fill-opacity:1;fill-rule:nonzero;stroke:none"
             id="path3711"
             inkscape:connector-curvature="0" /></g><g
           id="g3713"
           transform="translate(181.1045,275.6089)"><path
             d="m 0,0 0,21.917 12.991,0 0,-2.587 -10.614,0 0,-6.697 9.942,0 0,-2.587 -9.942,0 0,-7.459 11.033,0 L 13.41,0 0,0 Z"
             style="fill:#df3023;fill-opacity:1;fill-rule:nonzero;stroke:none"
             id="path3715"
             inkscape:connector-curvature="0" /></g><g
           id="g3717"
           transform="translate(197.7285,275.6089)"><path
             d="m 0,0 0,21.917 3.574,0 L 7.84,6.399 8.693,3.155 c 0.209,0.807 0.53,1.978 0.958,3.513 l 4.31,15.249 3.201,0 0,-21.917 -2.287,0 0,18.329 L 9.633,0 7.497,0 2.288,18.646 2.288,0 0,0 Z"
             style="fill:#df3023;fill-opacity:1;fill-rule:nonzero;stroke:none"
             id="path3719"
             inkscape:connector-curvature="0" /></g><path
           d="m 219.167,297.525 2.376,0 0,-21.917 -2.376,0 0,21.917 z"
           style="fill:#df3023;fill-opacity:1;fill-rule:nonzero;stroke:none"
           id="path3721"
           inkscape:connector-curvature="0" /><g
           id="g3723"
           transform="translate(237.4346,297.5254)"><path
             d="m 0,0 2.377,0 0,-12.662 c 0,-2.123 -0.207,-3.864 -0.619,-5.225 -0.414,-1.361 -1.166,-2.434 -2.256,-3.221 -1.09,-0.788 -2.477,-1.182 -4.159,-1.182 -2.369,0 -4.144,0.708 -5.323,2.123 -1.181,1.416 -1.77,3.917 -1.77,7.505 l 0,12.662 2.377,0 0,-12.647 c 0,-1.983 0.154,-3.419 0.463,-4.306 0.309,-0.887 0.815,-1.562 1.517,-2.026 0.703,-0.463 1.558,-0.695 2.564,-0.695 1.694,0 2.923,0.479 3.685,1.435 0.763,0.957 1.144,2.821 1.144,5.592 L 0,0 Z"
             style="fill:#df3023;fill-opacity:1;fill-rule:nonzero;stroke:none"
             id="path3725"
             inkscape:connector-curvature="0" /></g><g
           id="g3727"
           transform="translate(243.7432,275.6089)"><path
             d="m 0,0 0,21.917 3.575,0 L 7.84,6.399 8.693,3.155 c 0.21,0.807 0.53,1.978 0.958,3.513 l 4.311,15.249 3.201,0 0,-21.917 -2.288,0 0,18.329 L 9.634,0 7.498,0 2.287,18.646 2.287,0 0,0 Z"
             style="fill:#df3023;fill-opacity:1;fill-rule:nonzero;stroke:none"
             id="path3729"
             inkscape:connector-curvature="0" /></g></g></g><g
       id="g4204"
       transform="translate(-70.47887,83.600328)"><g
         transform="translate(582.4033,392.6372)"
         id="g3681"><path
           inkscape:connector-curvature="0"
           id="path3683"
           style="fill:#fab20b;fill-opacity:1;fill-rule:nonzero;stroke:none"
           d="m 0,0 c 0,33.604 -27.243,60.845 -60.847,60.845 -33.604,0 -60.842,-27.241 -60.842,-60.845 l -0.005,0 0,-32.65 C -108.614,-12.971 -86.247,0 -60.847,0 -35.45,0 -13.083,-12.969 0,-32.645 L 0,0 -0.015,0 0,0 Z" /></g><g
         transform="translate(558.0654,319.6182)"
         id="g3685"><path
           inkscape:connector-curvature="0"
           id="path3687"
           style="fill:#fab20b;fill-opacity:1;fill-rule:nonzero;stroke:none"
           d="M 0,0 C 0,20.162 -16.345,36.51 -36.509,36.51 -56.669,36.51 -73.014,20.162 -73.014,0 L 0,0 Z" /></g><g
         transform="translate(453.6367,276.9248)"
         id="g3731"><path
           inkscape:connector-curvature="0"
           id="path3733"
           style="fill:#fab20b;fill-opacity:1;fill-rule:nonzero;stroke:none"
           d="m 0,0 0,21.916 12.991,0 0,-2.586 -10.614,0 0,-6.698 9.941,0 0,-2.586 -9.941,0 0,-7.46 11.032,0 L 13.409,0 0,0 Z" /></g><g
         transform="translate(468.5112,276.9248)"
         id="g3735"><path
           inkscape:connector-curvature="0"
           id="path3737"
           style="fill:#fab20b;fill-opacity:1;fill-rule:nonzero;stroke:none"
           d="m 0,0 6.962,11.427 -6.14,10.489 2.828,0 3.284,-5.613 c 0.674,-1.152 1.15,-2.053 1.428,-2.704 0.386,0.78 0.861,1.612 1.425,2.497 l 3.634,5.82 2.56,0 L 9.684,11.606 16.475,0 13.544,0 9.008,7.813 C 8.756,8.252 8.499,8.741 8.241,9.284 7.833,8.484 7.54,7.938 7.363,7.645 L 2.855,0 0,0 Z" /></g><g
         transform="translate(489.4404,288.4209)"
         id="g3739"><path
           inkscape:connector-curvature="0"
           id="path3741"
           style="fill:#fab20b;fill-opacity:1;fill-rule:nonzero;stroke:none"
           d="M 0,0 4.649,0 C 6.115,0 7.186,0.331 7.864,0.995 8.542,1.657 8.88,2.657 8.88,3.992 8.88,4.859 8.713,5.602 8.379,6.219 8.046,6.837 7.642,7.261 7.168,7.49 6.695,7.719 5.841,7.834 4.605,7.834 L 0,7.834 0,0 Z m -2.377,-11.496 0,21.916 6.773,0 c 1.594,0 2.77,-0.14 3.527,-0.419 C 8.96,9.623 9.788,8.92 10.406,7.893 11.023,6.867 11.332,5.606 11.332,4.111 11.332,2.138 10.829,0.529 9.822,-0.718 8.816,-1.963 7.076,-2.586 4.605,-2.586 l -4.605,0 0,-8.91 -2.377,0 z" /></g><g
         transform="translate(506.1841,289.1685)"
         id="g3743"><path
           inkscape:connector-curvature="0"
           id="path3745"
           style="fill:#fab20b;fill-opacity:1;fill-rule:nonzero;stroke:none"
           d="m 0,0 5.113,0 c 1.116,0 1.963,0.135 2.541,0.403 0.578,0.27 1.037,0.693 1.375,1.271 0.34,0.578 0.509,1.251 0.509,2.019 0,1.106 -0.324,1.975 -0.972,2.608 -0.648,0.633 -1.609,0.95 -2.885,0.95 L 0,7.251 0,0 Z m -2.377,-12.244 0,21.916 7.968,0 C 7.256,9.672 8.484,9.468 9.276,9.06 10.068,8.651 10.719,7.971 11.228,7.021 11.735,6.07 11.99,4.966 11.99,3.713 11.99,2.058 11.559,0.718 10.697,-0.306 9.834,-1.333 8.582,-1.985 6.937,-2.265 7.604,-2.666 8.113,-3.072 8.461,-3.483 9.169,-4.32 9.792,-5.252 10.33,-6.278 l 3.14,-5.966 -2.99,0 -2.397,4.557 C 7.155,-5.905 6.454,-4.704 5.981,-4.084 5.508,-3.466 5.05,-3.047 4.607,-2.833 4.164,-2.619 3.544,-2.511 2.749,-2.511 l -2.749,0 0,-9.733 -2.377,0 z" /></g><g
         transform="translate(521.9858,276.9248)"
         id="g3747"><path
           inkscape:connector-curvature="0"
           id="path3749"
           style="fill:#fab20b;fill-opacity:1;fill-rule:nonzero;stroke:none"
           d="m 0,0 0,21.916 12.991,0 0,-2.586 -10.614,0 0,-6.698 9.942,0 0,-2.586 -9.942,0 0,-7.46 11.033,0 L 13.41,0 0,0 Z" /></g><g
         transform="translate(537.8779,283.981)"
         id="g3751"><path
           inkscape:connector-curvature="0"
           id="path3753"
           style="fill:#fab20b;fill-opacity:1;fill-rule:nonzero;stroke:none"
           d="m 0,0 2.242,0.239 c 0.12,-1.205 0.391,-2.145 0.815,-2.818 0.423,-0.672 1.028,-1.213 1.816,-1.622 0.787,-0.408 1.674,-0.612 2.661,-0.612 1.415,0 2.514,0.346 3.297,1.036 0.782,0.69 1.173,1.589 1.173,2.693 0,0.646 -0.142,1.211 -0.426,1.692 -0.284,0.483 -0.713,0.88 -1.286,1.186 C 9.719,2.103 8.48,2.539 6.577,3.102 4.883,3.605 3.677,4.111 2.959,4.62 2.242,5.127 1.684,5.773 1.285,6.556 0.886,7.338 0.688,8.223 0.688,9.208 c 0,1.775 0.573,3.226 1.718,4.352 1.146,1.126 2.691,1.689 4.635,1.689 1.335,0 2.503,-0.265 3.505,-0.793 1.002,-0.528 1.779,-1.286 2.333,-2.272 0.553,-0.987 0.849,-2.147 0.889,-3.483 L 11.481,8.492 c -0.12,1.425 -0.546,2.481 -1.278,3.169 C 9.47,12.348 8.441,12.692 7.115,12.692 5.77,12.692 4.744,12.391 4.036,11.788 3.328,11.185 2.974,10.405 2.974,9.448 2.974,8.561 3.234,7.874 3.752,7.386 4.27,6.897 5.436,6.403 7.249,5.903 9.021,5.412 10.267,4.986 10.985,4.626 c 1.095,-0.56 1.923,-1.297 2.481,-2.207 0.56,-0.911 0.84,-1.998 0.84,-3.264 0,-1.253 -0.294,-2.397 -0.882,-3.426 C 12.836,-5.302 12.036,-6.086 11.025,-6.623 10.013,-7.161 8.795,-7.43 7.37,-7.43 5.147,-7.43 3.375,-6.762 2.055,-5.427 0.734,-4.091 0.049,-2.282 0,0" /></g><g
         transform="translate(554.6211,283.981)"
         id="g3755"><path
           inkscape:connector-curvature="0"
           id="path3757"
           style="fill:#fab20b;fill-opacity:1;fill-rule:nonzero;stroke:none"
           d="m 0,0 2.243,0.239 c 0.119,-1.205 0.39,-2.145 0.814,-2.818 0.423,-0.672 1.029,-1.213 1.817,-1.622 0.786,-0.408 1.674,-0.612 2.66,-0.612 1.416,0 2.515,0.346 3.297,1.036 0.782,0.69 1.173,1.589 1.173,2.693 0,0.646 -0.142,1.211 -0.426,1.692 -0.284,0.483 -0.712,0.88 -1.286,1.186 C 9.72,2.103 8.481,2.539 6.578,3.102 4.883,3.605 3.677,4.111 2.96,4.62 2.243,5.127 1.685,5.773 1.286,6.556 0.887,7.338 0.688,8.223 0.688,9.208 c 0,1.775 0.573,3.226 1.718,4.352 1.147,1.126 2.691,1.689 4.636,1.689 1.334,0 2.503,-0.265 3.504,-0.793 1.002,-0.528 1.78,-1.286 2.333,-2.272 0.553,-0.987 0.85,-2.147 0.89,-3.483 L 11.481,8.492 c -0.12,1.425 -0.546,2.481 -1.278,3.169 -0.732,0.687 -1.762,1.031 -3.087,1.031 -1.345,0 -2.372,-0.301 -3.08,-0.904 C 3.329,11.185 2.975,10.405 2.975,9.448 2.975,8.561 3.234,7.874 3.752,7.386 4.27,6.897 5.437,6.403 7.249,5.903 9.022,5.412 10.268,4.986 10.985,4.626 c 1.096,-0.56 1.923,-1.297 2.482,-2.207 0.559,-0.911 0.84,-1.998 0.84,-3.264 0,-1.253 -0.294,-2.397 -0.883,-3.426 C 12.837,-5.302 12.037,-6.086 11.025,-6.623 10.014,-7.161 8.795,-7.43 7.37,-7.43 5.147,-7.43 3.376,-6.762 2.056,-5.427 0.735,-4.091 0.049,-2.282 0,0" /></g><g
         transform="translate(575.355,285.9243)"
         id="g3759"><path
           inkscape:connector-curvature="0"
           id="path3761"
           style="fill:#fab20b;fill-opacity:1;fill-rule:nonzero;stroke:none"
           d="M 0,0 6.122,0 4.254,6.07 C 3.676,7.934 3.252,9.448 2.984,10.615 2.752,9.209 2.423,7.814 1.999,6.428 L 0,0 Z m -5.157,-9 6.932,21.917 2.542,0 7.359,-21.917 -2.72,0 -2.091,6.638 -7.56,0 L -2.649,-9 -5.157,-9 Z" /></g></g><g
       id="g4163"
       transform="translate(-26.636918,9.782988)"><g
         transform="translate(200.6396,232.0137)"
         id="g3697"><path
           inkscape:connector-curvature="0"
           id="path3699"
           style="fill:#1476c6;fill-opacity:1;fill-rule:nonzero;stroke:none"
           d="m 0,0 c 34.262,0 62.035,-27.771 62.035,-62.033 0,-34.257 -27.773,-62.031 -62.035,-62.031 -34.258,0 -62.032,27.774 -62.032,62.031 C -62.032,-27.771 -34.258,0 0,0" /></g><g
         transform="translate(136.1138,73.0625)"
         id="g3763"><path
           inkscape:connector-curvature="0"
           id="path3765"
           style="fill:#1476c6;fill-opacity:1;fill-rule:nonzero;stroke:none"
           d="m 0,0 2.242,0.24 c 0.12,-1.207 0.392,-2.146 0.815,-2.818 0.424,-0.674 1.029,-1.215 1.816,-1.623 0.788,-0.408 1.675,-0.613 2.662,-0.613 1.415,0 2.513,0.347 3.296,1.037 0.782,0.689 1.174,1.589 1.174,2.693 0,0.645 -0.143,1.211 -0.427,1.691 C 11.294,1.09 10.866,1.486 10.292,1.793 9.719,2.102 8.481,2.539 6.578,3.102 4.883,3.605 3.678,4.111 2.96,4.619 2.242,5.127 1.684,5.773 1.286,6.555 0.887,7.338 0.688,8.223 0.688,9.209 c 0,1.773 0.573,3.225 1.719,4.35 1.146,1.127 2.691,1.689 4.634,1.689 1.336,0 2.504,-0.264 3.506,-0.791 1.002,-0.529 1.779,-1.287 2.332,-2.273 0.553,-0.987 0.85,-2.149 0.89,-3.483 L 11.481,8.49 c -0.12,1.426 -0.545,2.483 -1.278,3.17 -0.733,0.688 -1.762,1.031 -3.087,1.031 -1.345,0 -2.372,-0.3 -3.08,-0.904 C 3.329,11.184 2.975,10.404 2.975,9.447 2.975,8.561 3.234,7.873 3.752,7.385 4.271,6.896 5.437,6.404 7.25,5.902 9.022,5.412 10.268,4.984 10.986,4.627 12.081,4.066 12.909,3.328 13.469,2.42 c 0.558,-0.912 0.838,-1.998 0.838,-3.264 0,-1.254 -0.294,-2.398 -0.882,-3.427 -0.588,-1.032 -1.388,-1.817 -2.4,-2.352 C 10.014,-7.162 8.795,-7.43 7.371,-7.43 5.147,-7.43 3.376,-6.762 2.056,-5.428 0.735,-4.092 0.05,-2.281 0,0" /></g><g
         transform="translate(158.269,66.0059)"
         id="g3767"><path
           inkscape:connector-curvature="0"
           id="path3769"
           style="fill:#1476c6;fill-opacity:1;fill-rule:nonzero;stroke:none"
           d="m 0,0 0,19.33 -5.92,0 0,2.586 14.247,0 0,-2.586 -5.95,0 L 2.377,0 0,0 Z" /></g><g
         transform="translate(170.3789,75.0059)"
         id="g3771"><path
           inkscape:connector-curvature="0"
           id="path3773"
           style="fill:#1476c6;fill-opacity:1;fill-rule:nonzero;stroke:none"
           d="M 0,0 6.123,0 4.255,6.068 C 3.677,7.934 3.253,9.447 2.984,10.613 2.753,9.209 2.424,7.814 2,6.428 L 0,0 Z m -5.156,-9 6.93,21.916 2.543,0 7.36,-21.916 -2.72,0 -2.091,6.637 -7.56,0 L -2.648,-9 -5.156,-9 Z" /></g><g
         transform="translate(183.8647,66.0059)"
         id="g3775"><path
           inkscape:connector-curvature="0"
           id="path3777"
           style="fill:#1476c6;fill-opacity:1;fill-rule:nonzero;stroke:none"
           d="m 0,0 0,21.916 2.437,0 9.448,-17.242 0,17.242 2.273,0 L 14.158,0 11.721,0 2.288,17.244 2.288,0 0,0 Z" /></g><g
         transform="translate(204.376,68.5918)"
         id="g3779"><path
           inkscape:connector-curvature="0"
           id="path3781"
           style="fill:#1476c6;fill-opacity:1;fill-rule:nonzero;stroke:none"
           d="m 0,0 3.828,0 c 1.544,0 2.715,0.252 3.512,0.756 0.798,0.504 1.411,1.312 1.839,2.428 0.569,1.486 0.853,3.265 0.853,5.337 0,2.223 -0.303,3.969 -0.905,5.241 -0.603,1.271 -1.378,2.119 -2.325,2.549 -0.638,0.289 -1.65,0.433 -3.035,0.433 L 0,16.744 0,0 Z m -2.376,-2.586 0,21.916 6.204,0 c 1.534,0 2.7,-0.135 3.498,-0.402 1.046,-0.35 1.953,-0.989 2.72,-1.914 0.767,-0.928 1.366,-2.096 1.794,-3.506 0.429,-1.41 0.643,-3.082 0.643,-5.016 0,-2.482 -0.364,-4.588 -1.091,-6.316 C 10.664,0.447 9.729,-0.779 8.588,-1.502 7.448,-2.225 5.955,-2.586 4.111,-2.586 l -6.487,0 z" /></g><g
         transform="translate(223.3604,75.0059)"
         id="g3783"><path
           inkscape:connector-curvature="0"
           id="path3785"
           style="fill:#1476c6;fill-opacity:1;fill-rule:nonzero;stroke:none"
           d="M 0,0 6.122,0 4.254,6.068 C 3.676,7.934 3.253,9.447 2.984,10.613 2.753,9.209 2.424,7.814 2,6.428 L 0,0 Z m -5.156,-9 6.93,21.916 2.543,0 7.36,-21.916 -2.72,0 -2.091,6.637 -7.56,0 L -2.648,-9 -5.156,-9 Z" /></g><g
         transform="translate(239.2832,78.25)"
         id="g3787"><path
           inkscape:connector-curvature="0"
           id="path3789"
           style="fill:#1476c6;fill-opacity:1;fill-rule:nonzero;stroke:none"
           d="M 0,0 5.113,0 C 6.229,0 7.077,0.135 7.655,0.404 8.233,0.672 8.69,1.096 9.03,1.674 9.369,2.252 9.538,2.926 9.538,3.691 9.538,4.799 9.214,5.668 8.566,6.301 7.918,6.934 6.957,7.25 5.681,7.25 L 0,7.25 0,0 Z m -2.377,-12.244 0,21.916 7.968,0 c 1.665,0 2.893,-0.204 3.685,-0.613 0.793,-0.409 1.443,-1.088 1.951,-2.038 0.509,-0.953 0.763,-2.056 0.763,-3.308 0,-1.654 -0.432,-2.996 -1.293,-4.02 -0.863,-1.027 -2.116,-1.679 -3.76,-1.959 0.667,-0.4 1.175,-0.806 1.524,-1.218 0.708,-0.836 1.331,-1.768 1.87,-2.795 l 3.138,-5.965 -2.989,0 -2.397,4.556 c -0.928,1.782 -1.63,2.983 -2.102,3.604 -0.473,0.619 -0.93,1.037 -1.374,1.25 -0.443,0.215 -1.062,0.322 -1.858,0.322 l -2.749,0 0,-9.732 -2.377,0 z" /></g><g
         transform="translate(257.3574,68.5918)"
         id="g3791"><path
           inkscape:connector-curvature="0"
           id="path3793"
           style="fill:#1476c6;fill-opacity:1;fill-rule:nonzero;stroke:none"
           d="m 0,0 3.827,0 c 1.545,0 2.716,0.252 3.513,0.756 0.798,0.504 1.411,1.312 1.839,2.428 0.569,1.486 0.853,3.265 0.853,5.337 0,2.223 -0.303,3.969 -0.906,5.241 -0.602,1.271 -1.377,2.119 -2.324,2.549 -0.638,0.289 -1.65,0.433 -3.035,0.433 L 0,16.744 0,0 Z m -2.377,-2.586 0,21.916 6.204,0 c 1.535,0 2.701,-0.135 3.499,-0.402 1.046,-0.35 1.953,-0.989 2.72,-1.914 0.767,-0.928 1.366,-2.096 1.794,-3.506 0.429,-1.41 0.643,-3.082 0.643,-5.016 0,-2.482 -0.364,-4.588 -1.091,-6.316 C 10.664,0.447 9.729,-0.779 8.588,-1.502 7.447,-2.225 5.955,-2.586 4.111,-2.586 l -6.488,0 z" /></g></g><g
       id="g4183"
       transform="translate(-151.78544,16.128688)"><g
         transform="translate(575.9351,225.668)"
         id="g3701"><path
           inkscape:connector-curvature="0"
           id="path3703"
           style="fill:#4fbe37;fill-opacity:1;fill-rule:nonzero;stroke:none"
           d="m 0,0 c -1.056,-2.096 -1.889,-25.646 -1.889,-54.377 0,-28.728 0.833,-52.276 1.889,-54.379 -2.108,1.056 -25.653,1.888 -54.378,1.888 -28.731,0 -52.277,-0.832 -54.38,-1.888 1.057,2.103 1.889,25.651 1.889,54.379 0,28.728 -0.832,52.279 -1.889,54.377 2.098,-1.054 25.649,-1.886 54.377,-1.886 C -25.65,-1.886 -2.103,-1.054 0,0" /></g><g
         transform="translate(443.7163,70.6289)"
         id="g3795"><path
           inkscape:connector-curvature="0"
           id="path3797"
           style="fill:#4fbe37;fill-opacity:1;fill-rule:nonzero;stroke:none"
           d="m 0,0 0,21.916 12.991,0 0,-2.587 -10.614,0 0,-6.698 9.941,0 0,-2.586 -9.941,0 0,-7.459 11.033,0 L 13.41,0 0,0 Z" /></g><g
         transform="translate(473.167,78.3125)"
         id="g3799"><path
           inkscape:connector-curvature="0"
           id="path3801"
           style="fill:#4fbe37;fill-opacity:1;fill-rule:nonzero;stroke:none"
           d="m 0,0 2.392,-0.732 c -0.529,-2.463 -1.453,-4.299 -2.773,-5.51 -1.321,-1.211 -2.928,-1.817 -4.821,-1.817 -1.665,0 -3.088,0.407 -4.269,1.219 -1.18,0.815 -2.147,2.119 -2.9,3.912 -0.753,1.797 -1.128,3.914 -1.128,6.36 0,2.414 0.375,4.453 1.129,6.126 0.752,1.669 1.773,2.93 3.06,3.784 1.287,0.851 2.723,1.279 4.31,1.279 1.736,0 3.227,-0.541 4.474,-1.617 1.247,-1.08 2.12,-2.664 2.619,-4.752 L -0.24,7.58 c -0.798,3.039 -2.4,4.559 -4.804,4.559 -1.199,0 -2.237,-0.307 -3.115,-0.92 -0.879,-0.615 -1.58,-1.569 -2.103,-2.865 -0.524,-1.299 -0.786,-2.938 -0.786,-4.922 0,-3.004 0.528,-5.256 1.585,-6.756 1.056,-1.502 2.461,-2.252 4.215,-2.252 1.296,0 2.415,0.461 3.357,1.383 C -0.949,-3.271 -0.319,-1.873 0,0" /></g><g
         transform="translate(480.313,81.2637)"
         id="g3803"><path
           inkscape:connector-curvature="0"
           id="path3805"
           style="fill:#4fbe37;fill-opacity:1;fill-rule:nonzero;stroke:none"
           d="m 0,0 c 0,-2.703 0.595,-4.801 1.787,-6.291 1.19,-1.492 2.637,-2.236 4.342,-2.236 1.744,0 3.206,0.752 4.388,2.259 1.181,1.504 1.772,3.721 1.772,6.643 0,1.887 -0.305,3.57 -0.913,5.057 C 10.908,6.568 10.203,7.479 9.261,8.164 8.319,8.846 7.29,9.188 6.174,9.188 4.38,9.188 2.903,8.44 1.741,6.943 0.58,5.447 0,3.133 0,0 m -2.452,0.039 c 0,3.736 0.822,6.609 2.467,8.618 1.644,2.007 3.693,3.013 6.144,3.013 1.585,0 3.03,-0.449 4.335,-1.347 1.306,-0.896 2.34,-2.2 3.103,-3.909 0.761,-1.709 1.143,-3.744 1.143,-6.107 0,-3.248 -0.738,-5.895 -2.213,-7.938 -1.624,-2.252 -3.752,-3.379 -6.383,-3.379 -2.651,0 -4.784,1.156 -6.398,3.469 -1.466,2.092 -2.198,4.619 -2.198,7.58" /></g><g
         transform="translate(497.998,70.6289)"
         id="g3807"><path
           inkscape:connector-curvature="0"
           id="path3809"
           style="fill:#4fbe37;fill-opacity:1;fill-rule:nonzero;stroke:none"
           d="m 0,0 0,21.916 2.437,0 9.448,-17.242 0,17.242 2.272,0 L 14.157,0 11.72,0 2.287,17.243 2.287,0 0,0 Z" /></g><g
         transform="translate(524.1299,96.5801)"
         id="g3811"><path
           inkscape:connector-curvature="0"
           id="path3813"
           style="fill:#4fbe37;fill-opacity:1;fill-rule:nonzero;stroke:none"
           d="m 0,0 -1.39,-2.541 -2.512,0 2.647,4.186 2.361,0 2.751,-4.186 -2.512,0 L 0,0 Z m -6.159,-15.316 c 0,-2.704 0.596,-4.801 1.786,-6.291 1.191,-1.493 2.639,-2.237 4.343,-2.237 1.744,0 3.207,0.752 4.387,2.26 1.182,1.504 1.772,3.721 1.772,6.643 0,1.886 -0.303,3.57 -0.911,5.056 -0.469,1.137 -1.174,2.047 -2.116,2.733 -0.942,0.681 -1.971,1.023 -3.087,1.023 -1.794,0 -3.272,-0.747 -4.432,-2.244 -1.162,-1.496 -1.742,-3.811 -1.742,-6.943 m -2.452,0.039 c 0,3.736 0.822,6.609 2.466,8.618 1.645,2.007 3.693,3.013 6.145,3.013 1.585,0 3.03,-0.45 4.335,-1.347 1.306,-0.897 2.34,-2.2 3.102,-3.909 0.763,-1.709 1.144,-3.744 1.144,-6.108 0,-3.248 -0.737,-5.894 -2.212,-7.937 -1.625,-2.252 -3.753,-3.379 -6.384,-3.379 -2.651,0 -4.784,1.156 -6.399,3.469 -1.464,2.091 -2.197,4.619 -2.197,7.58" /></g><g
         transform="translate(535.6563,70.6289)"
         id="g3815"><path
           inkscape:connector-curvature="0"
           id="path3817"
           style="fill:#4fbe37;fill-opacity:1;fill-rule:nonzero;stroke:none"
           d="m 0,0 0,21.916 3.574,0 L 7.84,6.398 8.693,3.154 c 0.209,0.807 0.53,1.979 0.958,3.512 l 4.31,15.25 3.201,0 0,-21.916 -2.287,0 0,18.327 L 9.633,0 7.497,0 2.287,18.644 2.287,0 0,0 Z" /></g><path
         inkscape:connector-curvature="0"
         id="path3819"
         style="fill:#4fbe37;fill-opacity:1;fill-rule:nonzero;stroke:none"
         d="m 557.094,92.545 2.377,0 0,-21.916 -2.377,0 0,21.916 z" /><g
         transform="translate(576.3789,78.3125)"
         id="g3821"><path
           inkscape:connector-curvature="0"
           id="path3823"
           style="fill:#4fbe37;fill-opacity:1;fill-rule:nonzero;stroke:none"
           d="m 0,0 2.392,-0.732 c -0.528,-2.463 -1.453,-4.299 -2.773,-5.51 -1.321,-1.211 -2.928,-1.817 -4.822,-1.817 -1.664,0 -3.087,0.407 -4.267,1.219 -1.182,0.815 -2.148,2.119 -2.901,3.912 -0.752,1.797 -1.129,3.914 -1.129,6.36 0,2.414 0.377,4.453 1.13,6.126 0.753,1.669 1.773,2.93 3.06,3.784 1.287,0.851 2.723,1.279 4.311,1.279 1.735,0 3.226,-0.541 4.473,-1.617 1.247,-1.08 2.119,-2.664 2.619,-4.752 L -0.239,7.58 c -0.799,3.039 -2.401,4.559 -4.805,4.559 -1.199,0 -2.236,-0.307 -3.115,-0.92 -0.878,-0.615 -1.58,-1.569 -2.103,-2.865 -0.524,-1.299 -0.786,-2.938 -0.786,-4.922 0,-3.004 0.528,-5.256 1.585,-6.756 1.057,-1.502 2.462,-2.252 4.215,-2.252 1.296,0 2.415,0.461 3.357,1.383 C -0.95,-3.271 -0.319,-1.873 0,0" /></g><g
         transform="translate(583.5244,81.2637)"
         id="g3825"><path
           inkscape:connector-curvature="0"
           id="path3827"
           style="fill:#4fbe37;fill-opacity:1;fill-rule:nonzero;stroke:none"
           d="m 0,0 c 0,-2.703 0.596,-4.801 1.787,-6.291 1.191,-1.492 2.639,-2.236 4.343,-2.236 1.744,0 3.206,0.752 4.388,2.259 1.181,1.504 1.771,3.721 1.771,6.643 0,1.887 -0.304,3.57 -0.913,5.057 C 10.909,6.568 10.203,7.479 9.262,8.164 8.32,8.846 7.291,9.188 6.174,9.188 4.38,9.188 2.903,8.44 1.742,6.943 0.581,5.447 0,3.133 0,0 m -2.451,0.039 c 0,3.736 0.822,6.609 2.466,8.618 1.644,2.007 3.693,3.013 6.144,3.013 1.585,0 3.03,-0.449 4.336,-1.347 1.305,-0.896 2.34,-2.2 3.102,-3.909 0.762,-1.709 1.143,-3.744 1.143,-6.107 0,-3.248 -0.737,-5.895 -2.212,-7.938 -1.624,-2.252 -3.752,-3.379 -6.383,-3.379 -2.652,0 -4.785,1.156 -6.399,3.469 -1.465,2.092 -2.197,4.619 -2.197,7.58" /></g></g></g></svg>